<svg width="132" height="32" viewBox="0 0 132 32" fill="none" xmlns="http://www.w3.org/2000/svg">
<rect width="132" height="32" rx="8" fill="white"/>
<path fill-rule="evenodd" clip-rule="evenodd" d="M27.19 6C28.47 6 29.69 6.51 30.59 7.41C31.49 8.31 32 9.53 32 10.81V21.19C32 23.85 29.85 26 27.19 26H16.81C15.53 26 14.32 25.49 13.41 24.59C12.51 23.69 12 22.47 12 21.19V10.81C12 9.53 12.51 8.31 13.41 7.41C14.32 6.51 15.53 6 16.81 6L27.19 6Z" fill="#333333"/>
<path fill-rule="evenodd" clip-rule="evenodd" d="M19.8972 9.33467C20.0472 9.06467 20.3972 8.95467 20.6772 9.10467C20.7772 9.15467 20.8472 9.23467 20.8972 9.33467L21.9972 11.3947L23.0972 9.33467C23.2372 9.06467 23.5872 8.95467 23.8572 9.10467C23.9572 9.15467 24.0372 9.23467 24.0972 9.33467L28.0373 16.7347C28.1673 16.9847 28.1673 17.2847 28.0373 17.5347L25.5372 22.2147C25.3872 22.4947 25.0972 22.6647 24.7872 22.6647H19.2172C18.8972 22.6647 18.6072 22.4947 18.4572 22.2147L15.9672 17.5347C15.8372 17.2847 15.8372 16.9847 15.9672 16.7347L19.8972 9.33467ZM24.5572 21.0247L26.5372 17.3347C26.5972 17.2047 26.5972 17.0547 26.5372 16.9347L23.8372 11.8847C23.7772 11.7447 23.5972 11.6947 23.4572 11.7747C23.4072 11.7947 23.3772 11.8347 23.3372 11.8847L22.8072 12.9047L21.9972 14.4247V14.4147L20.8872 16.4947V16.5047C20.8372 16.5847 20.8072 16.6547 20.7872 16.7447C20.7672 16.7847 20.7572 16.8247 20.7472 16.8647V16.8847C20.7372 16.9747 20.7272 17.0447 20.7272 17.1347C20.7272 17.8447 21.2872 18.4147 21.9972 18.4147C22.6972 18.4147 23.2672 17.8547 23.2872 17.1547V17.1347H23.2772C23.2772 16.9247 23.2272 16.7247 23.1272 16.5347L22.7872 15.9147L23.5972 14.3947L24.3472 15.8047C24.5772 16.1947 24.6972 16.6447 24.6972 17.1347C24.6972 18.6247 23.4872 19.8347 21.9972 19.8347C20.5072 19.8347 19.2972 18.6247 19.2972 17.1347C19.2972 16.8747 19.3372 16.6247 19.4072 16.3847L19.4372 16.3247V16.2947C19.4872 16.1447 19.5372 16.0047 19.6172 15.8647L21.1872 12.9047L20.6572 11.8847C20.5872 11.7447 20.4072 11.6947 20.2672 11.7747C20.2172 11.7947 20.1872 11.8347 20.1572 11.8847L17.4672 16.9347C17.3972 17.0547 17.3972 17.2047 17.4672 17.3347L19.4372 21.0247C19.5072 21.1647 19.6572 21.2447 19.8072 21.2447H24.1872C24.3372 21.2447 24.4872 21.1647 24.5572 21.0247Z" fill="white"/>
<path d="M38.534 13.916V15.54H41.474V13.916H38.534ZM41.474 12.726V11.186H38.534V12.726H41.474ZM37.12 22.05L36.658 20.776C37.036 20.636 37.232 20.412 37.232 20.09V9.996H42.706V16.772H38.534V20.342C39.598 20.034 40.55 19.712 41.39 19.376C41.152 18.984 40.914 18.606 40.676 18.214L41.684 17.57C42.552 18.9 43.21 20.062 43.672 21.042L42.636 21.77C42.44 21.35 42.23 20.93 42.006 20.482C40.578 21.084 38.94 21.602 37.12 22.05ZM47.48 20.524H46.36L46.01 19.236L47.046 19.278C47.438 19.278 47.634 19.082 47.634 18.718V11.256H45.492V22.4H44.162V10.01H48.964V19.012C48.964 20.02 48.46 20.524 47.48 20.524ZM55.278 10.486V20.972H53.99V20.104H52.31V21.308H51.008V10.486H55.278ZM52.31 18.872H53.99V15.834H52.31V18.872ZM52.31 14.588H53.99V11.69H52.31V14.588ZM57.378 14.714C58.232 16.016 58.89 17.15 59.338 18.13L58.232 18.9C57.742 17.864 57.084 16.688 56.272 15.4L57.378 14.714ZM60.43 22.302H57.952L57.658 21.014C58.47 21.056 59.24 21.084 59.982 21.084C60.318 21.084 60.486 20.902 60.486 20.538V13.258H55.824V11.984H60.486V9.632H61.844V11.984H63.412V13.258H61.844V20.874C61.844 21.826 61.368 22.302 60.43 22.302ZM66.366 9.73C67.262 10.402 68.004 11.088 68.62 11.76L67.71 12.684C67.178 12.026 66.422 11.326 65.456 10.598L66.366 9.73ZM64.574 13.72H67.71V19.642C68.144 19.278 68.606 18.858 69.11 18.382L69.474 19.782C68.564 20.622 67.598 21.378 66.576 22.036L66.072 20.832C66.296 20.636 66.422 20.384 66.422 20.09V14.994H64.574V13.72ZM69.572 15.386H76.362V16.604C75.956 17.85 75.284 18.914 74.346 19.81C75.242 20.398 76.334 20.93 77.594 21.378L76.88 22.526C75.48 21.966 74.318 21.322 73.366 20.622C72.274 21.406 70.916 22.036 69.32 22.512L68.578 21.392C70.062 20.958 71.308 20.412 72.316 19.74C71.364 18.816 70.706 17.794 70.37 16.674H69.572V15.386ZM71.616 16.674C71.938 17.528 72.484 18.298 73.268 18.998C74.024 18.312 74.612 17.542 75.018 16.674H71.616ZM70.552 9.982H75.508V12.922C75.508 13.23 75.676 13.398 76.026 13.398H77.258V14.616H75.676C74.682 14.616 74.192 14.14 74.192 13.216V11.228H71.868V11.648C71.868 13.104 71.126 14.238 69.656 15.036L68.774 14.014C69.95 13.482 70.552 12.74 70.552 11.788V9.982ZM82.97 13.608H86.638V9.506H88.01V13.608H91.482V14.924H88.01V22.47H86.638V14.924H82.97V13.608ZM80.422 9.632C81.332 10.318 82.102 11.004 82.732 11.704L81.822 12.628C81.262 11.97 80.492 11.27 79.498 10.542L80.422 9.632ZM78.574 13.692H81.808V19.656C82.256 19.292 82.718 18.872 83.208 18.41L83.558 19.768C82.662 20.608 81.696 21.364 80.674 22.022L80.17 20.832C80.408 20.636 80.534 20.398 80.534 20.118V14.966H78.574V13.692ZM97.81 15.134H95.206V20.468C95.206 20.804 95.388 20.986 95.766 20.986H98.202C98.622 20.986 98.888 20.874 98.986 20.664C99.098 20.44 99.182 19.964 99.238 19.25L100.484 19.67C100.372 20.888 100.204 21.63 99.952 21.882C99.728 22.106 99.266 22.218 98.594 22.218H95.192C94.31 22.218 93.876 21.798 93.876 20.958V14.308L93.204 14.98L92.42 13.902C93.75 12.684 94.968 11.242 96.074 9.59H97.054C98.286 10.878 99.462 12.222 100.554 13.622L99.686 14.532C98.482 12.936 97.488 11.704 96.676 10.85C95.948 11.928 95.136 12.964 94.212 13.958H99.112V17.822C99.098 18.592 98.678 18.998 97.838 19.054C97.292 19.054 96.774 19.04 96.284 19.012L95.962 17.766C96.48 17.822 96.928 17.85 97.32 17.85C97.642 17.85 97.81 17.682 97.81 17.374V15.134ZM101.184 10.752H102.486V19.39H101.184V10.752ZM103.606 22.316H101.492L101.184 21.042C101.87 21.098 102.528 21.126 103.144 21.126C103.48 21.126 103.648 20.916 103.648 20.51V9.562H104.978V20.846C104.978 21.826 104.516 22.316 103.606 22.316ZM112.916 12.684C112.272 14.028 111.544 15.19 110.746 16.17L109.794 15.022C110.956 13.664 111.95 11.788 112.762 9.408L114.106 9.702C113.91 10.29 113.7 10.85 113.49 11.382H119.258V12.684H114.764V14.686H118.698V15.974H114.764V18.032H118.726V19.306H114.764V22.47H113.42V12.684H112.916ZM108.142 14.994C107.75 15.47 107.316 15.946 106.868 16.408L106.42 14.98C107.862 13.398 108.926 11.55 109.612 9.45L110.872 10.038C110.508 11.102 110.046 12.11 109.486 13.062V22.47H108.142V14.994Z" fill="#333333"/>
</svg>
